<svg width="24" height="24" viewBox="0 0 24 24" fill="none" xmlns="http://www.w3.org/2000/svg">
<g clip-path="url(#clip0_1648_11)">
<path d="M13.82 0.199989C10.7793 0.771257 8.07468 2.48984 6.266 4.99999H5C3.67457 5.0021 2.40403 5.52957 1.4668 6.46679C0.529579 7.40402 0.00211562 8.67456 0 9.99999L0 14C0.00211562 15.3254 0.529579 16.596 1.4668 17.5332C2.40403 18.4704 3.67457 18.9979 5 19H6.266C8.07504 21.5098 10.7795 23.2282 13.82 23.8C13.8796 23.8116 13.9403 23.8173 14.001 23.817C14.2662 23.817 14.5206 23.7116 14.7081 23.5241C14.8956 23.3366 15.001 23.0822 15.001 22.817V1.18599C15.0014 1.03912 14.9694 0.893979 14.9073 0.760871C14.8453 0.627764 14.7546 0.509962 14.6419 0.415837C14.5292 0.321712 14.3971 0.253576 14.255 0.21627C14.113 0.178965 13.9644 0.173406 13.82 0.199989ZM13 21.535C10.7944 20.8319 8.89788 19.3912 7.629 17.455C7.53834 17.3155 7.41432 17.2009 7.26817 17.1214C7.12201 17.042 6.95835 17.0002 6.792 17H5C4.20435 17 3.44129 16.6839 2.87868 16.1213C2.31607 15.5587 2 14.7956 2 14V9.99999C2 9.20434 2.31607 8.44128 2.87868 7.87867C3.44129 7.31606 4.20435 6.99999 5 6.99999H6.8C6.96617 6.99997 7.12971 6.95854 7.27585 6.87945C7.42198 6.80035 7.54611 6.68609 7.637 6.54699C8.90329 4.61123 10.7969 3.16993 13 2.46499V21.535Z" fill="white"/>
<line x1="17.1221" y1="17.5211" x2="23.1221" y2="6.52115" stroke="white" stroke-width="2"/>
<line x1="16.8779" y1="6.52115" x2="22.8779" y2="17.5211" stroke="white" stroke-width="2"/>
</g>
<defs>
<clipPath id="clip0_1648_11">
<rect width="24" height="24" fill="white"/>
</clipPath>
</defs>
</svg>
