<svg width="18" height="18" viewBox="0 0 18 18" fill="none" xmlns="http://www.w3.org/2000/svg">
<path d="M14.0325 6.1575C13.9628 6.08721 13.8798 6.03141 13.7884 5.99333C13.6971 5.95526 13.599 5.93565 13.5 5.93565C13.401 5.93565 13.303 5.95526 13.2116 5.99333C13.1202 6.03141 13.0372 6.08721 12.9675 6.1575L9.53251 9.5925C9.46279 9.6628 9.37984 9.71859 9.28845 9.75667C9.19705 9.79475 9.09902 9.81435 9.00001 9.81435C8.90101 9.81435 8.80298 9.79475 8.71158 9.75667C8.62019 9.71859 8.53724 9.6628 8.46751 9.5925L5.03251 6.1575C4.96279 6.08721 4.87984 6.03141 4.78845 5.99333C4.69705 5.95526 4.59902 5.93565 4.50001 5.93565C4.40101 5.93565 4.30298 5.95526 4.21158 5.99333C4.12019 6.03141 4.03724 6.08721 3.96751 6.1575C3.82783 6.29802 3.74942 6.48811 3.74942 6.68625C3.74942 6.88439 3.82783 7.07448 3.96751 7.215L7.41001 10.6575C7.83189 11.0789 8.40376 11.3155 9.00001 11.3155C9.59627 11.3155 10.1681 11.0789 10.59 10.6575L14.0325 7.215C14.1722 7.07448 14.2506 6.88439 14.2506 6.68625C14.2506 6.48811 14.1722 6.29802 14.0325 6.1575Z" fill="white"/>
</svg>
