<svg width="19" height="18" viewBox="0 0 19 18" fill="none" xmlns="http://www.w3.org/2000/svg">
<g clip-path="url(#clip0_2_624)">
<path d="M7.71446 13.5915C7.92341 13.8006 8.17151 13.9664 8.44458 14.0796C8.71766 14.1928 9.01036 14.251 9.30596 14.251C9.60155 14.251 9.89425 14.1928 10.1673 14.0796C10.4404 13.9664 10.6885 13.8006 10.8975 13.5915L13.3057 11.1833C13.4348 11.0404 13.5041 10.8535 13.4991 10.661C13.4942 10.4685 13.4154 10.2853 13.2792 10.1494C13.1429 10.0134 12.9595 9.93499 12.7671 9.93045C12.5746 9.92592 12.3877 9.99558 12.2452 10.125L10.0507 12.3202L10.056 0.75C10.056 0.551088 9.97694 0.360322 9.83629 0.21967C9.69563 0.0790176 9.50487 0 9.30596 0C9.10704 0 8.91628 0.0790176 8.77563 0.21967C8.63497 0.360322 8.55596 0.551088 8.55596 0.75L8.54921 12.306L6.36671 10.125C6.22598 9.98437 6.03514 9.9054 5.83619 9.90547C5.63724 9.90554 5.44646 9.98464 5.30583 10.1254C5.1652 10.2661 5.08623 10.4569 5.0863 10.6559C5.08637 10.8548 5.16548 11.0456 5.30621 11.1862L7.71446 13.5915Z" fill="white"/>
<path d="M17.556 12C17.357 12 17.1663 12.079 17.0256 12.2197C16.885 12.3603 16.806 12.5511 16.806 12.75V15.75C16.806 15.9489 16.7269 16.1397 16.5863 16.2803C16.4456 16.421 16.2549 16.5 16.056 16.5H2.55595C2.35704 16.5 2.16628 16.421 2.02562 16.2803C1.88497 16.1397 1.80595 15.9489 1.80595 15.75V12.75C1.80595 12.5511 1.72694 12.3603 1.58628 12.2197C1.44563 12.079 1.25487 12 1.05595 12C0.857042 12 0.666276 12.079 0.525624 12.2197C0.384972 12.3603 0.305954 12.5511 0.305954 12.75L0.305954 15.75C0.305954 16.3467 0.543007 16.919 0.964964 17.341C1.38692 17.7629 1.95922 18 2.55595 18H16.056C16.6527 18 17.225 17.7629 17.6469 17.341C18.0689 16.919 18.306 16.3467 18.306 15.75V12.75C18.306 12.5511 18.2269 12.3603 18.0863 12.2197C17.9456 12.079 17.7549 12 17.556 12Z" fill="white"/>
</g>
<defs>
<clipPath id="clip0_2_624">
<rect width="18" height="18" fill="white" transform="translate(0.305954)"/>
</clipPath>
</defs>
</svg>
