<svg width="20" height="20" viewBox="0 0 20 20" fill="none" xmlns="http://www.w3.org/2000/svg">
<g clip-path="url(#clip0_2_85)">
<path d="M13.8583 2.41667C13.2025 1.86085 12.515 1.27667 11.815 0.639988C11.278 0.151629 10.5528 -0.0746992 9.83332 0.021668C9.13614 0.113777 8.51582 0.510613 8.14 1.10499C7.14664 2.76499 6.4443 4.58253 6.06332 6.47917C5.91383 6.26331 5.78121 6.03628 5.66664 5.79999C5.27196 4.96843 4.27789 4.61425 3.44633 5.00893C3.245 5.10448 3.06489 5.23944 2.91664 5.40581C1.51887 6.83417 0.743988 8.75819 0.761644 10.7566C0.721918 14.9571 3.54735 18.645 7.61332 19.7C8.36985 19.8903 9.14657 19.9888 9.92664 19.9933C9.95164 19.9933 10.2175 19.9908 10.325 19.9833C15.3 19.8222 19.2479 15.7392 19.2416 10.7616C19.2383 6.98667 16.745 4.86999 13.8583 2.41667ZM9.90582 18.3208C9.28563 18.2736 8.67274 18.0224 8.21 17.6491C7.48539 17.1364 7.0059 16.3845 6.89168 15.5183C6.75 14.1666 7.58336 12.3991 9.28586 10.4025C9.46438 10.194 9.72555 10.0745 10 10.0758C10.271 10.0739 10.5286 10.193 10.7025 10.4008C12.2625 12.2525 13.1192 13.9608 13.1192 15.2116C13.1144 16.855 11.8299 18.155 10.1942 18.3133C10.1224 18.3203 10 18.3308 9.90582 18.3208ZM14.6467 16.7358C14.5975 16.7741 14.5434 16.805 14.4934 16.8416C14.6856 16.3191 14.7847 15.7668 14.7859 15.2099C14.7859 13.1041 13.2567 10.8474 11.975 9.32495C11.4847 8.74421 10.7634 8.40889 10.0034 8.40827H10C9.2384 8.4069 8.51453 8.73991 8.02 9.31909C5.9825 11.7058 5.04668 13.8499 5.23832 15.6924C5.28383 16.1201 5.39309 16.5387 5.5625 16.9341C3.58368 15.5003 2.4177 13.2002 2.43082 10.7566C2.41473 9.16913 3.04075 7.64249 4.16664 6.52327C4.35887 6.92288 4.58969 7.30272 4.85582 7.65745C5.22133 8.15159 5.84575 8.38089 6.44414 8.24077C7.05426 8.10581 7.52797 7.6246 7.65332 7.01245C7.98813 5.24276 8.62793 3.54471 9.54414 1.99413C9.65688 1.81686 9.84309 1.69944 10.0516 1.67413C10.2847 1.64276 10.5197 1.71632 10.6933 1.87495C11.4083 2.52495 12.11 3.12495 12.7766 3.68913C15.5583 6.05163 17.5691 7.75831 17.5691 10.7616C17.5763 13.0989 16.4974 15.3069 14.6491 16.7374L14.6467 16.7358Z" fill="white"/>
</g>
<defs>
<clipPath id="clip0_2_85">
<rect width="20" height="20" fill="white"/>
</clipPath>
</defs>
</svg>
