<svg width="14" height="14" viewBox="0 0 14 14" fill="none" xmlns="http://www.w3.org/2000/svg">
<g clip-path="url(#clip0_2_608)">
<path d="M11.5506 2.57775C10.1278 0.678999 7.868 -0.262501 5.51425 0.0618326C2.59992 0.462583 0.292249 2.88517 0.0268319 5.82283C-0.119001 7.43867 0.339499 9.03175 1.31892 10.3092C1.59717 10.6732 1.75 11.1609 1.75 11.683V12.2494C1.75 13.2142 2.53517 13.9994 3.5 13.9994H7.58333C8.54817 13.9994 9.33333 13.2142 9.33333 12.2494H9.6215C11.0787 12.2494 12.3217 11.1603 12.5131 9.71483L12.6408 8.74942H12.8333C13.5911 8.74942 14 8.14858 14 7.58275C14 6.75442 12.2897 3.49183 11.5506 2.57775ZM6.41667 5.25C7.06008 5.25 7.58333 5.77325 7.58333 6.41667C7.58333 7.06008 7.06008 7.58333 6.41667 7.58333C5.77325 7.58333 5.25 7.06008 5.25 6.41667C5.25 5.77325 5.77325 5.25 6.41667 5.25ZM12.1298 7.58333C11.837 7.58333 11.5897 7.80033 11.5517 8.09025L11.3569 9.562C11.242 10.4288 10.4959 11.0827 9.6215 11.0827H8.75C8.42742 11.0827 8.16667 11.3435 8.16667 11.6661V12.2494C8.16667 12.5714 7.90533 12.8327 7.58333 12.8327H3.5C3.178 12.8327 2.91667 12.5714 2.91667 12.2494V11.683C2.91667 10.906 2.67808 10.1657 2.24525 9.59992C1.44492 8.55517 1.06925 7.25083 1.18883 5.92725C1.40583 3.52508 3.29117 1.54408 5.67292 1.21742C5.72658 1.20983 5.78025 1.20342 5.83333 1.19758V4.15625C4.82767 4.41583 4.08333 5.3305 4.08333 6.41608C4.08333 7.70292 5.12983 8.74942 6.41667 8.74942C7.7035 8.74942 8.75 7.70292 8.75 6.41608C8.75 5.3305 8.00567 4.41583 7 4.15625V1.19817C8.428 1.3545 9.72592 2.08833 10.6301 3.29467C11.3925 4.23733 12.7592 7.05892 12.8322 7.58392H12.1298V7.58333Z" fill="white" fill-opacity="0.3"/>
</g>
<defs>
<clipPath id="clip0_2_608">
<rect width="14" height="14" fill="white"/>
</clipPath>
</defs>
</svg>
