<svg width="20" height="20" viewBox="0 0 20 20" fill="none" xmlns="http://www.w3.org/2000/svg">
<g clip-path="url(#clip0_2_81)">
<path d="M18.3333 4.77V1.66666C18.3333 1.20666 17.9608 0.83333 17.5 0.83333C17.0392 0.83333 16.6667 1.20666 16.6667 1.66666V3.63833L12.3308 0.712496C10.915 -0.242504 9.085 -0.242504 7.66917 0.712496L1.83583 4.64916C0.686667 5.425 0 6.71583 0 8.10333V15.8333C0 18.1308 1.86917 20 4.16667 20H6.66667C7.1275 20 7.5 19.6267 7.5 19.1667V12.5C7.5 12.0408 7.87333 11.6667 8.33333 11.6667H11.6667C12.1267 11.6667 12.5 12.0408 12.5 12.5V19.1667C12.5 19.6267 12.8725 20 13.3333 20H15.8333C18.1308 20 20 18.1308 20 15.8333V8.10333C20 6.78583 19.38 5.555 18.3333 4.77ZM18.3333 15.8333C18.3333 17.2117 17.2117 18.3333 15.8333 18.3333H14.1667V12.5C14.1667 11.1217 13.045 10 11.6667 10H8.33333C6.955 10 5.83333 11.1217 5.83333 12.5V18.3333H4.16667C2.78833 18.3333 1.66667 17.2117 1.66667 15.8333V8.10333C1.66667 7.27083 2.07833 6.49583 2.76833 6.03083L8.60167 2.09416C9.45167 1.52083 10.5483 1.52083 11.3975 2.09416L17.2308 6.03083C17.9208 6.49583 18.3325 7.27083 18.3325 8.10333L18.3333 15.8333Z" fill="white"/>
</g>
<defs>
<clipPath id="clip0_2_81">
<rect width="20" height="20" fill="white"/>
</clipPath>
</defs>
</svg>
