<svg width="18" height="18" viewBox="0 0 18 18" fill="none" xmlns="http://www.w3.org/2000/svg">
<g clip-path="url(#clip0_2_470)">
<path d="M9 3.00391C9.82951 3.00391 10.502 2.33146 10.502 1.50196C10.502 0.672448 9.82951 0 9 0C8.1705 0 7.49805 0.672448 7.49805 1.50196C7.49805 2.33146 8.1705 3.00391 9 3.00391Z" fill="white" fill-opacity="0.3"/>
<path d="M9 10.5078C9.82951 10.5078 10.502 9.83537 10.502 9.00586C10.502 8.17635 9.82951 7.50391 9 7.50391C8.1705 7.50391 7.49805 8.17635 7.49805 9.00586C7.49805 9.83537 8.1705 10.5078 9 10.5078Z" fill="white" fill-opacity="0.3"/>
<path d="M9 18.0117C9.82951 18.0117 10.502 17.3393 10.502 16.5098C10.502 15.6803 9.82951 15.0078 9 15.0078C8.1705 15.0078 7.49805 15.6803 7.49805 16.5098C7.49805 17.3393 8.1705 18.0117 9 18.0117Z" fill="white" fill-opacity="0.3"/>
</g>
<defs>
<clipPath id="clip0_2_470">
<rect width="18" height="18" fill="white"/>
</clipPath>
</defs>
</svg>
