<svg width="19" height="18" viewBox="0 0 19 18" fill="none" xmlns="http://www.w3.org/2000/svg">
<path d="M15.2712 10.9999C14.7049 11.0003 14.1471 11.1388 13.6461 11.4032C13.145 11.6677 12.7158 12.0502 12.3954 12.5178L7.51954 10.3137C7.86586 9.47642 7.8672 8.53601 7.52328 7.69779L12.3924 5.48241C12.8673 6.16994 13.5725 6.66432 14.3803 6.87587C15.188 7.08742 16.0447 7.00213 16.795 6.63547C17.5453 6.26881 18.1395 5.64507 18.4698 4.87739C18.8001 4.1097 18.8446 3.24893 18.5953 2.4512C18.3459 1.65346 17.8193 0.971615 17.1108 0.529332C16.4024 0.0870492 15.559 -0.0863729 14.7338 0.0405232C13.9086 0.167419 13.1561 0.586228 12.6129 1.22098C12.0696 1.85573 11.7716 2.66439 11.7729 3.50026C11.7761 3.6981 11.7962 3.89531 11.8329 4.08973L6.65657 6.44461C6.15943 5.97829 5.53705 5.66752 4.8659 5.55047C4.19476 5.43342 3.50408 5.51519 2.87871 5.78573C2.25335 6.05627 1.72054 6.50381 1.34574 7.07334C0.970948 7.64288 0.770487 8.30963 0.76899 8.99166C0.767494 9.67369 0.965026 10.3413 1.33732 10.9125C1.70961 11.4837 2.24045 11.9335 2.86462 12.2068C3.48879 12.4801 4.17911 12.5649 4.85076 12.4508C5.52241 12.3367 6.14615 12.0287 6.64534 11.5646L11.8351 13.9105C11.7991 14.1047 11.7793 14.3016 11.7759 14.4992C11.7758 15.1915 11.9807 15.8683 12.3648 16.444C12.7489 17.0197 13.2949 17.4684 13.9338 17.7334C14.5726 17.9984 15.2756 18.0678 15.9538 17.9328C16.6321 17.7978 17.2551 17.4644 17.7441 16.9749C18.233 16.4853 18.566 15.8616 18.7009 15.1826C18.8358 14.5036 18.7665 13.7998 18.5018 13.1602C18.2371 12.5206 17.7889 11.974 17.2138 11.5894C16.6388 11.2049 15.9628 10.9997 15.2712 10.9999ZM15.2712 1.50011C15.6664 1.49997 16.0527 1.61715 16.3814 1.83684C16.71 2.05652 16.9662 2.36885 17.1175 2.73432C17.2689 3.09978 17.3085 3.50197 17.2315 3.89001C17.1545 4.27805 16.9643 4.63451 16.6849 4.91431C16.4056 5.19411 16.0496 5.38468 15.662 5.46192C15.2745 5.53916 14.8727 5.49959 14.5076 5.34823C14.1425 5.19686 13.8304 4.9405 13.6109 4.61156C13.3913 4.28262 13.2741 3.89588 13.2741 3.50026C13.2745 2.97004 13.485 2.46164 13.8595 2.08665C14.2339 1.71165 14.7416 1.50071 15.2712 1.50011ZM4.28492 10.9999C3.88975 11 3.50341 10.8828 3.17477 10.6631C2.84613 10.4435 2.58994 10.1311 2.43861 9.76566C2.28728 9.4002 2.24761 8.99801 2.32462 8.60997C2.40162 8.22193 2.59184 7.86547 2.87121 7.58567C3.15059 7.30587 3.50657 7.1153 3.89413 7.03806C4.2817 6.96083 4.68344 7.00039 5.04854 7.15176C5.41365 7.30312 5.72571 7.55948 5.94527 7.88842C6.16483 8.21736 6.28202 8.6041 6.28202 8.99972C6.28143 9.52988 6.07085 10.0382 5.69647 10.4131C5.3221 10.7881 4.81447 10.9991 4.28492 10.9999ZM15.2712 16.4993C14.8761 16.4993 14.4898 16.382 14.1613 16.1622C13.8327 15.9425 13.5767 15.6301 13.4255 15.2646C13.2742 14.8991 13.2347 14.497 13.3118 14.109C13.3889 13.721 13.5791 13.3646 13.8585 13.0849C14.1379 12.8051 14.4939 12.6146 14.8815 12.5375C15.269 12.4603 15.6707 12.4999 16.0358 12.6513C16.4008 12.8027 16.7129 13.059 16.9324 13.388C17.1519 13.7169 17.2691 14.1036 17.2691 14.4992C17.2687 15.0295 17.0581 15.538 16.6835 15.9131C16.3089 16.2881 15.801 16.4989 15.2712 16.4993Z" fill="white"/>
</svg>
