<svg width="25" height="26" viewBox="0 0 25 26" fill="none" xmlns="http://www.w3.org/2000/svg">
<path d="M22.4583 11.6875L21.0417 10.0417C20.7708 9.72916 20.5521 9.14582 20.5521 8.72916V6.95832C20.5521 5.85416 19.6458 4.94791 18.5417 4.94791H16.7708C16.3646 4.94791 15.7708 4.72916 15.4583 4.45832L13.8125 3.04166C13.0938 2.42707 11.9167 2.42707 11.1875 3.04166L9.55208 4.46874C9.23958 4.72916 8.64583 4.94791 8.23958 4.94791H6.4375C5.33333 4.94791 4.42708 5.85416 4.42708 6.95832V8.73957C4.42708 9.14582 4.20833 9.72916 3.94792 10.0417L2.54167 11.6979C1.9375 12.4167 1.9375 13.5833 2.54167 14.3021L3.94792 15.9583C4.20833 16.2708 4.42708 16.8542 4.42708 17.2604V19.0417C4.42708 20.1458 5.33333 21.0521 6.4375 21.0521H8.23958C8.64583 21.0521 9.23958 21.2708 9.55208 21.5417L11.1979 22.9583C11.9167 23.5729 13.0938 23.5729 13.8229 22.9583L15.4688 21.5417C15.7813 21.2708 16.3646 21.0521 16.7813 21.0521H18.5521C19.6563 21.0521 20.5625 20.1458 20.5625 19.0417V17.2708C20.5625 16.8646 20.7813 16.2708 21.0521 15.9583L22.4688 14.3125C23.0729 13.5937 23.0729 12.4062 22.4583 11.6875ZM16.8333 11.0312L11.8021 16.0625C11.6563 16.2083 11.4583 16.2917 11.25 16.2917C11.0417 16.2917 10.8438 16.2083 10.6979 16.0625L8.17708 13.5417C7.875 13.2396 7.875 12.7396 8.17708 12.4375C8.47917 12.1354 8.97917 12.1354 9.28125 12.4375L11.25 14.4062L15.7292 9.92707C16.0313 9.62499 16.5313 9.62499 16.8333 9.92707C17.1354 10.2292 17.1354 10.7292 16.8333 11.0312Z" fill="url(#paint0_linear_2_668)"/>
<defs>
<linearGradient id="paint0_linear_2_668" x1="12.5042" y1="2.58124" x2="12.5042" y2="23.4198" gradientUnits="userSpaceOnUse">
<stop stop-color="#138BD7"/>
<stop offset="1" stop-color="#62AAFB"/>
</linearGradient>
</defs>
</svg>
